<svg width="125" height="49" viewBox="0 0 125 49" fill="none" xmlns="http://www.w3.org/2000/svg">
<path fill-rule="evenodd" clip-rule="evenodd" d="M55 15H71C72.1046 15 73 15.8954 73 17V33C73 34.1046 72.1046 35 71 35H55C53.8954 35 53 34.1046 53 33V17C53 15.8954 53.8954 15 55 15ZM55 17V33H71V17H55ZM66.7535 23.908C67.5845 24.683 68 25.6693 68 26.8904C68 28.0881 67.5845 29.0744 66.7535 29.8493C65.9224 30.6243 64.8421 31 63.5679 31C62.3767 31 61.4903 30.6712 60.9086 29.9902V30.8121H58V19H61.1856V23.4618C61.795 22.9922 62.5706 22.7339 63.5679 22.7339C64.8698 22.7339 65.9224 23.1331 66.7535 23.908ZM64.2327 28.0881C64.5928 27.8063 64.759 27.3836 64.759 26.8669C64.759 26.3503 64.5651 25.9276 64.2327 25.6458C63.8726 25.3405 63.4571 25.1996 62.9584 25.1996C62.4598 25.1996 62.0443 25.3405 61.6842 25.6458C61.3241 25.9276 61.1579 26.3503 61.1579 26.8904C61.1579 27.4305 61.3241 27.8297 61.6842 28.1115C62.0443 28.3933 62.4598 28.5342 62.9584 28.5342C63.4294 28.5342 63.8726 28.3699 64.2327 28.0881Z" fill="#5458E4"/>
</svg>
