<svg width="125" height="49" viewBox="0 0 125 49" fill="none" xmlns="http://www.w3.org/2000/svg">
<path fill-rule="evenodd" clip-rule="evenodd" d="M71 15H55C53.8954 15 53 15.8954 53 17V33C53 34.1046 53.8954 35 55 35H71C72.1046 35 73 34.1046 73 33V17C73 15.8954 72.1046 15 71 15ZM55 33V17H71V33H55Z" fill="white"/>
<path fill-rule="evenodd" clip-rule="evenodd" d="M61.921 27.905L61.921 23L64.079 23L64.079 27.905L65.4741 26.5221L67 28.0348L63 32L59 28.0348L60.5259 26.5221L61.921 27.905Z" fill="white"/>
<path fill-rule="evenodd" clip-rule="evenodd" d="M64.079 22.095L64.079 27L61.921 27L61.921 22.095L60.5259 23.4779L59 21.9652L63 18L67 21.9652L65.4741 23.4779L64.079 22.095Z" fill="white"/>
</svg>
